<svg xmlns="http://www.w3.org/2000/svg" fill="none" viewBox="0 0 429 500">
  <path fill="#fff" d="M281.676 1.56c39.033 5.086 75.464 18.55 107.591 39.991 13.011 8.677 28.624 21.143 35.83 28.623L429 74.163l-11.91 3.69c-24.02 7.48-49.642 19.347-72.361 33.109l-11.509 7.081-.601-10.671c-1.401-22.04-9.008-45.875-19.817-61.732-4.604-6.781-13.911-16.355-15.413-15.857-.5.1-2.702 4.289-4.804 9.076-8.106 18.749-23.62 43.68-38.832 62.131-4.804 5.884-15.413 17.153-23.42 24.832l-14.712 14.161 4.303.699c2.302.398 5.905 1.196 8.007 1.795l3.903 1.196-13.711 8.477c-34.129 21.143-61.552 44.878-81.169 70.409l-5.504 7.18 1.001 5.784c3.603 19.348-.501 26.728-33.829 60.635-27.823 28.323-51.043 56.945-49.541 60.934.7 1.696 21.718 17.752 28.624 21.841 5.805 3.391 16.514 6.981 27.022 9.075 7.507 1.596 8.808 2.194 13.612 6.582 6.105 5.585 14.512 9.873 25.121 12.765l7.406 2.095 4.304-3.989c12.61-11.569 31.526-22.738 47.44-27.825 8.607-2.692 22.719-5.086 30.725-5.086 12.011 0 27.624 4.488 33.629 9.774 1.601 1.396 1.701 1.296 1.701-1.995 0-4.488-2.702-13.563-5.104-16.954-1.101-1.396-1.902-2.892-1.902-3.291 0-1.496 21.518.399 29.425 2.394 21.718 5.684 38.532 18.948 46.739 36.7 1.602 3.49 3.103 6.283 3.403 6.283.2 0 1.401-1.895 2.602-4.289 7.807-15.059 6.106-35.304-4.103-51.46-2.302-3.49-4.003-6.482-3.803-6.582 1.001-.997 13.511 4.388 19.316 8.378 17.114 11.568 26.723 31.414 26.723 54.95 0 51.958-42.636 86.664-114.197 92.847-31.426 2.792-72.06-2.992-103.687-14.461-12.911-4.786-35.63-15.856-46.939-23.037-21.118-13.264-43.637-33.01-59.85-52.357C27.561 373.946 8.045 329.168 1.34 280.8c-2.001-14.261-1.701-51.56.5-65.821 4.505-29.22 12.01-52.856 24.722-77.788 13.11-25.929 28.023-45.975 49.541-66.818 41.335-40.09 93.979-64.225 151.528-69.81 11.509-1.097 42.335-.499 54.045.997Zm-82.469 241.144c-3.303 9.574-9.308 20.743-13.612 25.231-3.903 3.989-9.908 5.884-19.116 5.884h-5.104l.701-3.291c1.601-7.779 5.304-12.965 13.311-18.749 8.707-6.383 25.421-16.954 25.922-16.555.2.2-.801 3.59-2.102 7.48Z"/>
</svg>
